<svg xmlns="http://www.w3.org/2000/svg" viewBox="0 0 100 32" width="100" height="32">
  <path fill="#1a1f71" d="M13.6 28.8h4.5L25.3 3.2H20.8l-7.2 25.6zm19.8-13.8c-.8-4.2-6-4.5-6.2-4.5-5.9.1-10.7 3.3-10.7 8 0 6.6 9.2 6.4 9.2 10.2 0 1.2-1.3 2.1-3.6 2.1-4.8 0-7.3-2.1-7.3-2.1l-1.3 3.8s2.8 1.3 8.3 1.3c5.6 0 11.2-2.7 11.2-8.3 0-6.9-9.1-7.3-9.1-10.5 0-1 1-1.8 3.1-1.8 2.6 0 4.1.8 4.1.8l1.3-3.8c0 0-2 .8-5.1.8zm24 13.8l3.6-25.6h-4.3l-3.6 25.6H57.4zm16.5-25.6H66l-6.8 25.6h4.5l1.3-9.6h5.8c3.2 0 6.3-1.6 7.4-4.8l2.2-11.2h-4.5l-2.2 11.2c-.4 1.8-1.8 2.7-3.6 2.7h-3.4l1.9-13.9zm13-3.2L82.1 28.8h4.5L93.3 3.2H86.9zM7.2 3.2L1 21.6h5.8L12.3 3.2H7.2zm-.6 0h.1c-.6.6-1 1.2-1.3 1.9L2.8 19c-.3.8-.6 1.4-.9 2.2h5.8L12.3 3.2H6.6z" />
</svg>
